<svg width="52" height="41" viewBox="0 0 52 41" fill="none" xmlns="http://www.w3.org/2000/svg">
<circle cx="0.706257" cy="40.3533" r="0.646687" transform="rotate(-90 0.706257 40.3533)" fill="#3056D3"/>
<circle cx="6.39687" cy="40.3533" r="0.646687" transform="rotate(-90 6.39687 40.3533)" fill="#3056D3"/>
<circle cx="12.0881" cy="40.3533" r="0.646687" transform="rotate(-90 12.0881 40.3533)" fill="#3056D3"/>
<circle cx="17.7787" cy="40.3533" r="0.646687" transform="rotate(-90 17.7787 40.3533)" fill="#3056D3"/>
<circle cx="23.4693" cy="40.3533" r="0.646687" transform="rotate(-90 23.4693 40.3533)" fill="#3056D3"/>
<circle cx="34.4632" cy="40.3533" r="0.646687" transform="rotate(-90 34.4632 40.3533)" fill="#3056D3"/>
<circle cx="45.7157" cy="40.3533" r="0.646687" transform="rotate(-90 45.7157 40.3533)" fill="#3056D3"/>
<circle cx="29.0312" cy="40.3533" r="0.646687" transform="rotate(-90 29.0312 40.3533)" fill="#3056D3"/>
<circle cx="40.0245" cy="40.3533" r="0.646687" transform="rotate(-90 40.0245 40.3533)" fill="#3056D3"/>
<circle cx="51.277" cy="40.3533" r="0.646687" transform="rotate(-90 51.277 40.3533)" fill="#3056D3"/>
<circle cx="0.706257" cy="34.6629" r="0.646687" transform="rotate(-90 0.706257 34.6629)" fill="#3056D3"/>
<circle cx="6.39687" cy="34.6629" r="0.646687" transform="rotate(-90 6.39687 34.6629)" fill="#3056D3"/>
<circle cx="12.0881" cy="34.6629" r="0.646687" transform="rotate(-90 12.0881 34.6629)" fill="#3056D3"/>
<circle cx="17.7787" cy="34.6629" r="0.646687" transform="rotate(-90 17.7787 34.6629)" fill="#3056D3"/>
<circle cx="23.4693" cy="34.6629" r="0.646687" transform="rotate(-90 23.4693 34.6629)" fill="#3056D3"/>
<circle cx="34.4632" cy="34.6629" r="0.646687" transform="rotate(-90 34.4632 34.6629)" fill="#3056D3"/>
<circle cx="45.7157" cy="34.6629" r="0.646687" transform="rotate(-90 45.7157 34.6629)" fill="#3056D3"/>
<circle cx="29.0312" cy="34.6629" r="0.646687" transform="rotate(-90 29.0312 34.6629)" fill="#3056D3"/>
<circle cx="40.0245" cy="34.6629" r="0.646687" transform="rotate(-90 40.0245 34.6629)" fill="#3056D3"/>
<circle cx="51.277" cy="34.6629" r="0.646687" transform="rotate(-90 51.277 34.6629)" fill="#3056D3"/>
<circle cx="0.706257" cy="28.9715" r="0.646687" transform="rotate(-90 0.706257 28.9715)" fill="#3056D3"/>
<circle cx="0.706257" cy="12.0286" r="0.646687" transform="rotate(-90 0.706257 12.0286)" fill="#3056D3"/>
<circle cx="6.39687" cy="28.9715" r="0.646687" transform="rotate(-90 6.39687 28.9715)" fill="#3056D3"/>
<circle cx="6.39687" cy="12.0286" r="0.646687" transform="rotate(-90 6.39687 12.0286)" fill="#3056D3"/>
<circle cx="12.0881" cy="28.9715" r="0.646687" transform="rotate(-90 12.0881 28.9715)" fill="#3056D3"/>
<circle cx="12.0881" cy="12.0286" r="0.646687" transform="rotate(-90 12.0881 12.0286)" fill="#3056D3"/>
<circle cx="17.7787" cy="28.9715" r="0.646687" transform="rotate(-90 17.7787 28.9715)" fill="#3056D3"/>
<circle cx="17.7787" cy="12.0286" r="0.646687" transform="rotate(-90 17.7787 12.0286)" fill="#3056D3"/>
<circle cx="23.4693" cy="28.9715" r="0.646687" transform="rotate(-90 23.4693 28.9715)" fill="#3056D3"/>
<circle cx="23.4693" cy="12.0281" r="0.646687" transform="rotate(-90 23.4693 12.0281)" fill="#3056D3"/>
<circle cx="34.4632" cy="28.9715" r="0.646687" transform="rotate(-90 34.4632 28.9715)" fill="#3056D3"/>
<circle cx="34.4632" cy="12.0281" r="0.646687" transform="rotate(-90 34.4632 12.0281)" fill="#3056D3"/>
<circle cx="45.7157" cy="28.9715" r="0.646687" transform="rotate(-90 45.7157 28.9715)" fill="#3056D3"/>
<circle cx="45.7157" cy="12.0281" r="0.646687" transform="rotate(-90 45.7157 12.0281)" fill="#3056D3"/>
<circle cx="29.0312" cy="28.9715" r="0.646687" transform="rotate(-90 29.0312 28.9715)" fill="#3056D3"/>
<circle cx="29.0312" cy="12.0281" r="0.646687" transform="rotate(-90 29.0312 12.0281)" fill="#3056D3"/>
<circle cx="40.0245" cy="28.9715" r="0.646687" transform="rotate(-90 40.0245 28.9715)" fill="#3056D3"/>
<circle cx="40.0245" cy="12.0281" r="0.646687" transform="rotate(-90 40.0245 12.0281)" fill="#3056D3"/>
<circle cx="51.277" cy="28.9715" r="0.646687" transform="rotate(-90 51.277 28.9715)" fill="#3056D3"/>
<circle cx="51.277" cy="12.0281" r="0.646687" transform="rotate(-90 51.277 12.0281)" fill="#3056D3"/>
<circle cx="0.706257" cy="23.281" r="0.646687" transform="rotate(-90 0.706257 23.281)" fill="#3056D3"/>
<circle cx="0.706257" cy="6.33769" r="0.646687" transform="rotate(-90 0.706257 6.33769)" fill="#3056D3"/>
<circle cx="6.39687" cy="23.281" r="0.646687" transform="rotate(-90 6.39687 23.281)" fill="#3056D3"/>
<circle cx="6.39687" cy="6.33769" r="0.646687" transform="rotate(-90 6.39687 6.33769)" fill="#3056D3"/>
<circle cx="12.0881" cy="23.281" r="0.646687" transform="rotate(-90 12.0881 23.281)" fill="#3056D3"/>
<circle cx="12.0881" cy="6.33769" r="0.646687" transform="rotate(-90 12.0881 6.33769)" fill="#3056D3"/>
<circle cx="17.7787" cy="23.281" r="0.646687" transform="rotate(-90 17.7787 23.281)" fill="#3056D3"/>
<circle cx="17.7787" cy="6.33769" r="0.646687" transform="rotate(-90 17.7787 6.33769)" fill="#3056D3"/>
<circle cx="23.4693" cy="23.281" r="0.646687" transform="rotate(-90 23.4693 23.281)" fill="#3056D3"/>
<circle cx="23.4693" cy="6.33769" r="0.646687" transform="rotate(-90 23.4693 6.33769)" fill="#3056D3"/>
<circle cx="34.4632" cy="23.281" r="0.646687" transform="rotate(-90 34.4632 23.281)" fill="#3056D3"/>
<circle cx="34.4632" cy="6.33769" r="0.646687" transform="rotate(-90 34.4632 6.33769)" fill="#3056D3"/>
<circle cx="45.7157" cy="23.281" r="0.646687" transform="rotate(-90 45.7157 23.281)" fill="#3056D3"/>
<circle cx="45.7157" cy="6.33769" r="0.646687" transform="rotate(-90 45.7157 6.33769)" fill="#3056D3"/>
<circle cx="29.0312" cy="23.281" r="0.646687" transform="rotate(-90 29.0312 23.281)" fill="#3056D3"/>
<circle cx="29.0312" cy="6.33769" r="0.646687" transform="rotate(-90 29.0312 6.33769)" fill="#3056D3"/>
<circle cx="40.0245" cy="23.281" r="0.646687" transform="rotate(-90 40.0245 23.281)" fill="#3056D3"/>
<circle cx="40.0245" cy="6.33769" r="0.646687" transform="rotate(-90 40.0245 6.33769)" fill="#3056D3"/>
<circle cx="51.277" cy="23.281" r="0.646687" transform="rotate(-90 51.277 23.281)" fill="#3056D3"/>
<circle cx="51.277" cy="6.33769" r="0.646687" transform="rotate(-90 51.277 6.33769)" fill="#3056D3"/>
<circle cx="0.706257" cy="17.5896" r="0.646687" transform="rotate(-90 0.706257 17.5896)" fill="#3056D3"/>
<circle cx="0.706257" cy="0.64677" r="0.646687" transform="rotate(-90 0.706257 0.64677)" fill="#3056D3"/>
<circle cx="6.39687" cy="17.5896" r="0.646687" transform="rotate(-90 6.39687 17.5896)" fill="#3056D3"/>
<circle cx="6.39687" cy="0.64677" r="0.646687" transform="rotate(-90 6.39687 0.64677)" fill="#3056D3"/>
<circle cx="12.0881" cy="17.5896" r="0.646687" transform="rotate(-90 12.0881 17.5896)" fill="#3056D3"/>
<circle cx="12.0881" cy="0.64677" r="0.646687" transform="rotate(-90 12.0881 0.64677)" fill="#3056D3"/>
<circle cx="17.7787" cy="17.5896" r="0.646687" transform="rotate(-90 17.7787 17.5896)" fill="#3056D3"/>
<circle cx="17.7787" cy="0.64677" r="0.646687" transform="rotate(-90 17.7787 0.64677)" fill="#3056D3"/>
<circle cx="23.4693" cy="17.5896" r="0.646687" transform="rotate(-90 23.4693 17.5896)" fill="#3056D3"/>
<circle cx="23.4693" cy="0.64677" r="0.646687" transform="rotate(-90 23.4693 0.64677)" fill="#3056D3"/>
<circle cx="34.4632" cy="17.5896" r="0.646687" transform="rotate(-90 34.4632 17.5896)" fill="#3056D3"/>
<circle cx="34.4632" cy="0.64677" r="0.646687" transform="rotate(-90 34.4632 0.64677)" fill="#3056D3"/>
<circle cx="45.7157" cy="17.5896" r="0.646687" transform="rotate(-90 45.7157 17.5896)" fill="#3056D3"/>
<circle cx="45.7157" cy="0.64677" r="0.646687" transform="rotate(-90 45.7157 0.64677)" fill="#3056D3"/>
<circle cx="29.0312" cy="17.5896" r="0.646687" transform="rotate(-90 29.0312 17.5896)" fill="#3056D3"/>
<circle cx="29.0312" cy="0.64677" r="0.646687" transform="rotate(-90 29.0312 0.64677)" fill="#3056D3"/>
<circle cx="40.0245" cy="17.5896" r="0.646687" transform="rotate(-90 40.0245 17.5896)" fill="#3056D3"/>
<circle cx="40.0245" cy="0.64677" r="0.646687" transform="rotate(-90 40.0245 0.64677)" fill="#3056D3"/>
<circle cx="51.277" cy="17.5896" r="0.646687" transform="rotate(-90 51.277 17.5896)" fill="#3056D3"/>
<circle cx="51.277" cy="0.64677" r="0.646687" transform="rotate(-90 51.277 0.64677)" fill="#3056D3"/>
</svg>
